<mxfile host="app.diagrams.net" modified="2023-04-27T14:27:10.713Z" agent="Mozilla/5.0 (Windows NT 10.0; Win64; x64) AppleWebKit/537.36 (KHTML, like Gecko) Chrome/112.0.0.0 Safari/537.36 Edg/112.0.1722.58" version="21.2.3" etag="jOi2ca1JcKThq6VIrmTV" type="github">
  <diagram name="第 1 页" id="eo0PhbDBEqhfWxgCo3OH">
    <mxGraphModel>
      <root>
        <mxCell id="0" />
        <mxCell id="1" parent="0" />
      </root>
    </mxGraphModel>
  </diagram>
</mxfile>
